<svg xmlns="http://www.w3.org/2000/svg" version="1.1" xmlns:xlink="http://www.w3.org/1999/xlink" width="512" height="512" x="0" y="0" viewBox="0 0 512 512" style="enable-background:new 0 0 512 512" xml:space="preserve" class=""><g><g fill-rule="evenodd" clip-rule="evenodd"><path fill="#e5252a" d="M168.584 0h173.398l153.062 153.091v293.98c0 35.698-29.202 64.929-64.929 64.929h-261.53c-35.698 0-64.9-29.231-64.9-64.929V64.929C103.685 29.231 132.887 0 168.584 0z" opacity="1" data-original="#e5252a" class=""></path><path fill="#b71d21" d="m341.982 0 153.062 153.091H358.485c-9.1 0-16.503-7.432-16.503-16.532zM31.206 218.02h352.618c7.842 0 14.25 6.408 14.25 14.25v129.36c0 7.842-6.408 14.25-14.25 14.25H31.206c-7.842 0-14.25-6.408-14.25-14.25V232.27c0-7.842 6.409-14.25 14.25-14.25z" opacity="1" data-original="#b71d21" class=""></path></g><path fill="#ffffff" d="M117.759 244.399H91.161a8.266 8.266 0 0 0-8.266 8.266v88.542a8.266 8.266 0 0 0 16.532 0v-25.94h18.331c19.224 0 34.864-15.64 34.864-34.863v-1.141c.001-19.224-15.639-34.864-34.863-34.864zm18.332 36.004c0 10.108-8.224 18.331-18.332 18.331H99.427V260.93h18.331c10.108 0 18.332 8.224 18.332 18.331v1.142zm70.62-36.004h-26.597a8.266 8.266 0 0 0-8.266 8.266v88.542a8.266 8.266 0 0 0 8.266 8.266h26.597c19.224 0 34.864-15.64 34.864-34.863v-35.347c0-19.224-15.64-34.864-34.864-34.864zm18.332 70.21c0 10.108-8.224 18.331-18.332 18.331H188.38v-72.01h18.331c10.108 0 18.332 8.224 18.332 18.331zm53.897-53.678v22.882h38.317a8.266 8.266 0 0 1 0 16.532H278.94v40.862a8.266 8.266 0 0 1-16.532 0v-88.542a8.266 8.266 0 0 1 8.266-8.266h53.195a8.266 8.266 0 0 1 0 16.532z" opacity="1" data-original="#ffffff" class=""></path></g></svg>